<?xml version="1.0" standalone="no"?>
<!DOCTYPE svg PUBLIC "-//W3C//DTD SVG 20010904//EN"
 "http://www.w3.org/TR/2001/REC-SVG-20010904/DTD/svg10.dtd">
<svg version="1.0" xmlns="http://www.w3.org/2000/svg"
 width="220.000000pt" height="220.000000pt" viewBox="0 0 220.000000 220.000000"
 preserveAspectRatio="xMidYMid meet">
<metadata>
Created by potrace 1.11, written by Peter Selinger 2001-2013
</metadata>
<g transform="translate(0.000000,220.000000) scale(0.100000,-0.100000)"
fill="#000000" stroke="none">
<path d="M1593 2192 c-15 -10 -22 -73 -9 -77 6 -2 31 -6 56 -9 98 -12 165 -34
217 -73 17 -12 35 -23 38 -23 14 0 82 -77 116 -130 51 -79 64 -119 75 -220 7
-65 8 -67 49 -62 l37 4 -5 67 c-6 64 -12 99 -25 131 -3 8 -6 17 -7 20 -8 30
-31 80 -37 80 -4 0 -8 6 -8 13 0 7 -11 25 -25 40 -14 15 -23 27 -20 27 3 0
-14 20 -38 45 -24 25 -49 45 -55 45 -6 0 -15 6 -19 13 -15 23 -132 78 -198 93
-11 3 -42 7 -70 10 -27 3 -52 7 -55 9 -3 2 -11 1 -17 -3z"/>
<path d="M1583 2012 c-10 -7 -11 -67 -2 -76 2 -2 24 -6 49 -9 25 -3 59 -11 75
-18 17 -7 33 -12 38 -11 4 1 7 -2 7 -8 0 -5 5 -10 10 -10 16 0 126 -116 123
-130 0 -3 3 -16 8 -29 5 -13 13 -47 17 -75 l7 -51 41 0 c42 0 42 0 39 35 -8
93 -43 183 -90 234 -13 14 -20 27 -17 30 3 3 -1 6 -9 6 -8 0 -25 12 -38 25
-13 14 -29 25 -36 25 -7 0 -16 7 -19 16 -4 9 -9 14 -12 11 -3 -3 -22 2 -42 10
-20 9 -49 17 -65 19 -15 2 -38 6 -50 8 -13 2 -28 1 -34 -2z"/>
<path d="M1017 1994 c-1 -1 -33 -4 -72 -7 -75 -7 -91 -9 -187 -33 -5 -1 -10
-3 -13 -4 -3 -1 -8 -3 -12 -4 -52 -9 -262 -116 -271 -138 -2 -4 -10 -8 -17 -8
-7 0 -16 -7 -19 -16 -4 -9 -9 -14 -12 -11 -6 5 -154 -136 -149 -141 3 -4 -3
-12 -53 -70 -30 -36 -123 -222 -116 -233 3 -5 0 -9 -6 -9 -7 0 -10 -7 -6 -15
3 -8 2 -15 -3 -15 -4 0 -8 -6 -9 -12 0 -7 -5 -31 -11 -53 -24 -100 -35 -290
-19 -365 24 -118 33 -153 61 -225 16 -44 43 -99 58 -123 16 -24 29 -46 29 -49
0 -3 17 -28 37 -57 63 -86 183 -197 278 -257 40 -25 150 -80 160 -80 2 0 21
-7 42 -15 20 -9 44 -17 52 -19 9 -2 51 -10 93 -19 114 -24 276 -20 406 9 12 3
30 7 40 9 72 17 203 79 298 142 52 35 182 158 219 208 11 14 25 33 32 40 19
22 116 206 108 206 -4 0 -3 6 3 12 12 15 40 108 48 158 3 19 9 51 13 70 8 36
6 229 -2 265 -10 43 -21 110 -19 118 1 4 -3 7 -10 7 -6 0 -9 3 -5 6 12 12 -73
210 -97 226 -6 4 -8 8 -3 8 9 0 -43 80 -53 80 -4 0 -7 6 -8 13 -11 145 -15
164 -35 188 -9 10 -17 23 -17 28 0 7 -42 31 -65 37 -5 1 -14 3 -20 5 -5 2 -36
-1 -67 -5 -52 -7 -62 -5 -110 22 -52 29 -175 80 -207 87 -9 2 -36 8 -61 13
-65 15 -215 32 -223 26z m173 -108 c14 -4 34 -8 45 -10 74 -15 256 -94 271
-118 4 -7 7 -30 5 -50 -4 -54 33 -125 73 -142 17 -8 58 -13 94 -12 l63 3 43
-66 c103 -159 148 -308 148 -496 0 -184 -50 -349 -148 -496 -180 -269 -461
-415 -779 -404 -60 2 -121 6 -135 9 -14 4 -36 8 -48 11 -138 25 -316 127 -432
244 -432 437 -312 1167 237 1444 48 25 119 53 153 62 8 2 15 4 15 5 0 2 5 3
85 15 25 4 46 8 48 10 5 5 236 -3 262 -9z"/>
<path d="M910 1664 c-141 -26 -253 -83 -351 -177 -276 -264 -280 -706 -9 -975
81 -81 218 -160 305 -178 11 -2 34 -7 50 -10 45 -10 195 -11 240 -2 70 13 79
16 125 34 185 73 322 209 396 393 34 83 45 151 43 261 -5 281 -177 523 -444
625 -27 11 -57 20 -65 22 -95 20 -209 22 -290 7z m92 -132 c0 -26 1 -56 2 -67
1 -18 -6 -20 -72 -21 l-73 -1 7 46 c11 78 18 84 102 89 32 1 32 1 34 -46z
m158 31 c10 -10 30 -105 25 -113 -2 -4 -32 -6 -67 -6 l-63 1 -3 69 -3 68 52
-5 c28 -3 55 -9 59 -14z m145 -51 c91 -50 92 -67 2 -68 -37 -1 -69 1 -71 5 -9
15 -16 101 -9 101 4 0 40 -17 78 -38z m-486 -14 c-4 -24 -8 -46 -9 -49 0 -8
-127 -5 -135 3 -11 10 116 87 146 88 4 0 3 -19 -2 -42z m-27 -173 c-1 -41 -7
-72 -14 -77 -22 -13 -148 -8 -148 6 0 17 21 129 25 137 2 3 35 5 72 5 l68 -1
-3 -70z m213 -6 l0 -74 -85 0 c-51 0 -84 4 -84 10 1 6 5 37 9 70 3 32 8 62 11
66 2 3 36 6 76 4 l73 -1 0 -75z m196 49 c4 -15 10 -49 14 -76 l6 -49 -80 -1
c-45 -1 -81 2 -82 6 -6 45 -5 138 2 143 5 3 37 5 71 5 58 -1 62 -2 69 -28z
m190 23 c4 0 10 -27 14 -58 4 -32 8 -65 10 -75 3 -15 -5 -17 -70 -16 -83 1
-78 -4 -90 99 l-7 55 69 -1 c37 -1 71 -3 74 -4z m145 -103 l24 -48 -44 0 c-49
0 -52 4 -62 78 -3 26 -8 50 -11 55 -2 4 -1 12 3 18 9 15 58 -42 90 -103z
m-937 65 c-4 -21 -11 -55 -14 -75 -6 -36 -8 -38 -45 -38 -39 0 -39 1 -30 26
16 40 77 124 91 124 4 0 3 -17 -2 -37z m-33 -217 c-2 -34 -5 -74 -5 -89 -1
-28 -2 -28 -58 -25 l-58 3 3 40 c3 34 8 56 26 120 2 6 24 10 50 11 l47 1 -5
-61z m210 4 c-3 -30 -5 -70 -6 -87 l0 -33 -80 0 -80 0 0 44 c0 24 3 63 6 87
l6 44 80 0 80 0 -6 -55z m207 51 l28 -1 -3 -82 -3 -83 -93 -3 -93 -3 2 68 c4
110 3 109 88 106 25 0 59 -2 74 -2z m248 -45 c0 -22 3 -60 5 -84 l4 -43 -92 3
-93 3 0 80 1 80 54 5 c30 3 70 3 88 1 30 -3 32 -5 33 -45z m194 42 c1 -1 6
-40 10 -86 l7 -83 -78 3 c-87 3 -81 -3 -85 98 -1 31 0 61 3 66 6 8 135 10 143
2z m141 3 c17 -1 23 -11 33 -53 7 -29 13 -66 14 -83 l2 -30 -62 -3 c-60 -3
-63 -2 -64 20 -1 13 -3 32 -4 43 -13 100 -8 114 38 109 12 -1 31 -3 43 -3z
m-1002 -278 c4 -32 9 -70 12 -85 6 -28 5 -28 -45 -28 -46 0 -53 3 -61 25 -13
34 -28 133 -22 140 3 3 29 5 58 5 l52 0 6 -57z m206 45 c0 -7 3 -46 7 -85 l6
-73 -76 0 c-85 0 -81 -5 -93 108 l-6 62 81 0 c58 0 81 -4 81 -12z m230 -73 l0
-85 -79 0 c-44 0 -82 3 -84 8 -3 4 -8 42 -12 85 l-7 77 91 0 91 0 0 -85z m233
65 c-1 -8 -4 -45 -8 -82 l-7 -68 -84 0 -84 0 0 85 0 86 93 -3 c75 -2 92 -6 90
-18z m203 -17 c-3 -21 -8 -59 -11 -85 l-6 -48 -75 0 -75 0 6 73 c4 39 8 78 10
85 3 8 28 12 81 12 l76 0 -6 -37z m176 -6 c-2 -21 -9 -57 -16 -80 l-12 -42
-57 -3 -57 -3 4 38 c3 21 8 60 11 86 l6 48 62 -3 62 -3 -3 -38z m-1012 -239
c6 -35 14 -71 17 -80 13 -50 -56 22 -96 100 l-21 42 43 0 44 0 13 -62z m193
40 c3 -13 9 -50 12 -83 l7 -61 -71 0 -70 1 -16 67 c-23 103 -26 98 59 98 68 0
74 -2 79 -22z m201 -28 c-1 -25 -2 -61 -3 -81 l-1 -35 -57 2 c-32 1 -61 2 -64
3 -4 1 -10 22 -13 49 -4 26 -10 62 -13 80 l-5 33 78 -3 79 -3 -1 -45z m212 33
c-3 -10 -8 -40 -12 -68 -10 -78 -14 -81 -86 -80 l-63 0 0 65 c-1 104 -4 100
87 100 71 0 79 -2 74 -17z m204 9 c0 -12 -20 -124 -26 -143 -4 -13 -19 -16
-79 -16 -41 0 -75 3 -75 8 0 7 13 76 26 137 4 20 10 22 79 22 41 0 75 -4 75
-8z m150 0 c0 -11 -64 -107 -93 -137 -13 -15 -27 -23 -30 -19 -3 5 2 44 10 87
l16 77 48 0 c27 0 49 -3 49 -8z m-741 -217 c11 -13 22 -71 14 -78 -11 -12
-156 70 -148 82 6 11 123 7 134 -4z m171 -52 l0 -64 -47 6 c-26 3 -48 7 -50 9
-4 4 -8 24 -17 78 l-5 34 59 0 60 0 0 -63z m174 27 c-12 -67 -26 -85 -72 -91
-51 -7 -59 2 -56 58 3 67 5 69 73 69 l61 0 -6 -36z m203 25 c4 -12 -64 -54
-125 -78 l-43 -17 6 37 c10 70 9 69 87 68 39 0 73 -5 75 -10z"/>
</g>
</svg>
